<svg width="22" height="17" viewBox="0 0 22 17" fill="none" xmlns="http://www.w3.org/2000/svg">
<path d="M21.78 0H0.22C0.099 0 0 0.0869318 0 0.193182V1.73864C0 1.84489 0.099 1.93182 0.22 1.93182H21.78C21.901 1.93182 22 1.84489 22 1.73864V0.193182C22 0.0869318 21.901 0 21.78 0ZM21.78 15.0682H0.22C0.099 15.0682 0 15.1551 0 15.2614V16.8068C0 16.9131 0.099 17 0.22 17H21.78C21.901 17 22 16.9131 22 16.8068V15.2614C22 15.1551 21.901 15.0682 21.78 15.0682ZM21.78 7.53409H0.22C0.099 7.53409 0 7.62102 0 7.72727V9.27273C0 9.37898 0.099 9.46591 0.22 9.46591H21.78C21.901 9.46591 22 9.37898 22 9.27273V7.72727C22 7.62102 21.901 7.53409 21.78 7.53409Z" fill="#1A1A1A"/>
</svg>
