<svg width="15" height="13" viewBox="0 0 15 13" fill="none" xmlns="http://www.w3.org/2000/svg">
<path d="M14.85 0H0.15C0.0675 0 0 0.0664773 0 0.147727V1.32955C0 1.4108 0.0675 1.47727 0.15 1.47727H14.85C14.9325 1.47727 15 1.4108 15 1.32955V0.147727C15 0.0664773 14.9325 0 14.85 0ZM14.85 11.5227H0.15C0.0675 11.5227 0 11.5892 0 11.6705V12.8523C0 12.9335 0.0675 13 0.15 13H14.85C14.9325 13 15 12.9335 15 12.8523V11.6705C15 11.5892 14.9325 11.5227 14.85 11.5227ZM14.85 5.76136H0.15C0.0675 5.76136 0 5.82784 0 5.90909V7.09091C0 7.17216 0.0675 7.23864 0.15 7.23864H14.85C14.9325 7.23864 15 7.17216 15 7.09091V5.90909C15 5.82784 14.9325 5.76136 14.85 5.76136Z" fill="#1A1A1A"/>
</svg>
