<svg width="31" height="28" viewBox="0 0 31 28" fill="none" xmlns="http://www.w3.org/2000/svg">
<path opacity="0.5" d="M30.4515 12.8555C29.2156 10.2518 27.7449 8.12835 26.0393 6.48514L24.2506 8.27389C25.7092 9.66784 26.9798 11.4914 28.0784 13.7625C25.1534 19.8164 21.0014 22.6922 15.3272 22.6922C13.624 22.6922 12.0552 22.4299 10.6209 21.9054L8.6827 23.8435C10.6749 24.7635 12.8897 25.2234 15.3272 25.2234C22.0843 25.2234 27.1257 21.7043 30.4515 14.666C30.5852 14.3829 30.6545 14.0738 30.6545 13.7607C30.6545 13.4477 30.5852 13.1385 30.4515 12.8555ZM28.2166 1.58296L26.7179 0.0824868C26.6917 0.0563372 26.6607 0.0355926 26.6266 0.0214389C26.5924 0.00728519 26.5558 0 26.5189 0C26.4819 0 26.4453 0.00728519 26.4112 0.0214389C26.377 0.0355926 26.346 0.0563372 26.3199 0.0824868L22.4748 3.92577C20.3549 2.84296 17.9724 2.30155 15.3272 2.30155C8.5702 2.30155 3.52879 5.82069 0.203011 12.859C0.0693304 13.142 0 13.4512 0 13.7642C0 14.0773 0.0693304 14.3865 0.203011 14.6695C1.53168 17.468 3.13129 19.711 5.00184 21.3988L1.2816 25.118C1.2289 25.1707 1.19929 25.2422 1.19929 25.3168C1.19929 25.3913 1.2289 25.4628 1.2816 25.5156L2.78242 27.0164C2.83516 27.0691 2.90667 27.0987 2.98123 27.0987C3.05579 27.0987 3.1273 27.0691 3.18004 27.0164L28.2166 1.98092C28.2427 1.9548 28.2635 1.92379 28.2776 1.88964C28.2918 1.8555 28.2991 1.8189 28.2991 1.78194C28.2991 1.74498 28.2918 1.70838 28.2776 1.67424C28.2635 1.64009 28.2427 1.60908 28.2166 1.58296ZM2.57606 13.7625C5.50457 7.70858 9.65653 4.8328 15.3272 4.8328C17.2447 4.8328 18.9881 5.16186 20.5697 5.83089L18.0982 8.30237C16.9278 7.67787 15.5876 7.44609 14.2754 7.64124C12.9632 7.83639 11.7484 8.44813 10.8103 9.38621C9.87224 10.3243 9.26051 11.539 9.06536 12.8513C8.87021 14.1635 9.10198 15.5037 9.72649 16.6741L6.79375 19.6069C5.17059 18.1742 3.77137 16.2333 2.57606 13.7625ZM11.2491 13.7625C11.2497 13.1426 11.3966 12.5315 11.6777 11.979C11.9588 11.4265 12.3663 10.9481 12.8671 10.5826C13.3679 10.2172 13.9478 9.97504 14.5597 9.87583C15.1717 9.77662 15.7984 9.82316 16.3889 10.0117L11.4358 14.9648C11.3116 14.5761 11.2487 14.1705 11.2491 13.7625Z" fill="white"/>
<path opacity="0.5" d="M15.1865 17.7C15.0649 17.7 14.945 17.6943 14.8262 17.6834L12.9692 19.5404C14.0861 19.9681 15.303 20.0632 16.4727 19.8141C17.6425 19.565 18.715 18.9823 19.5607 18.1366C20.4064 17.291 20.989 16.2184 21.2381 15.0487C21.4873 13.8789 21.3922 12.662 20.9645 11.5452L19.1075 13.4021C19.1184 13.5209 19.124 13.6408 19.124 13.7625C19.1243 14.2796 19.0227 14.7918 18.8249 15.2696C18.6271 15.7475 18.3371 16.1816 17.9714 16.5473C17.6057 16.913 17.1715 17.203 16.6937 17.4008C16.2158 17.5986 15.7037 17.7002 15.1865 17.7Z" fill="white"/>
</svg>
