<svg width="31" height="23" viewBox="0 0 31 23" fill="none" xmlns="http://www.w3.org/2000/svg">
<path opacity="0.5" d="M30.4514 10.5539C27.1186 3.5332 22.0807 0 15.3272 0C8.5702 0 3.53582 3.5332 0.203011 10.5574C0.0693304 10.8405 0 11.1496 0 11.4627C0 11.7757 0.0693304 12.0849 0.203011 12.368C3.53582 19.3887 8.57371 22.9219 15.3272 22.9219C22.0843 22.9219 27.1186 19.3887 30.4514 12.3645C30.7222 11.7949 30.7222 11.134 30.4514 10.5539ZM15.3272 20.3906C9.65653 20.3906 5.50457 17.5148 2.57606 11.4609C5.50457 5.40703 9.65653 2.53125 15.3272 2.53125C20.9979 2.53125 25.1499 5.40703 28.0784 11.4609C25.1534 17.5148 21.0014 20.3906 15.3272 20.3906ZM15.1866 5.27344C11.7694 5.27344 8.9991 8.04375 8.9991 11.4609C8.9991 14.8781 11.7694 17.6484 15.1866 17.6484C18.6038 17.6484 21.3741 14.8781 21.3741 11.4609C21.3741 8.04375 18.6038 5.27344 15.1866 5.27344ZM15.1866 15.3984C13.0104 15.3984 11.2491 13.6371 11.2491 11.4609C11.2491 9.28477 13.0104 7.52344 15.1866 7.52344C17.3628 7.52344 19.1241 9.28477 19.1241 11.4609C19.1241 13.6371 17.3628 15.3984 15.1866 15.3984Z" fill="white"/>
</svg>
