<svg width="14" height="21" viewBox="0 0 14 21" fill="none" xmlns="http://www.w3.org/2000/svg">
<path d="M13.1657 4.22984C12.8336 3.39961 12.3615 2.65349 11.759 2.01589C10.5349 0.716279 8.90989 0 7.18762 0C5.46536 0 3.84036 0.716279 2.61627 2.01318C2.01372 2.65349 1.54164 3.3969 1.20952 4.22984C0.86317 5.09806 0.687622 6.01783 0.687622 6.96744V7.7C0.687622 7.86822 0.806235 8.00388 0.953315 8.00388H2.23434C2.38142 8.00388 2.50003 7.86822 2.50003 7.7V6.96744C2.50003 4.26783 4.60186 2.07287 7.18762 2.07287C9.77339 2.07287 11.8752 4.26783 11.8752 6.96744C11.8752 8.07442 11.5312 9.11628 10.8789 9.9845C10.2336 10.8446 9.32266 11.4605 8.31445 11.7209C7.73799 11.8702 7.21846 12.2419 6.85076 12.7736C6.48434 13.3036 6.28462 13.9592 6.28379 14.6349V15.4868C6.28379 15.655 6.4024 15.7907 6.54948 15.7907H7.8305C7.97759 15.7907 8.0962 15.655 8.0962 15.4868V14.6349C8.0962 14.2089 8.35477 13.8345 8.71299 13.7422C10.0984 13.3841 11.3557 12.5295 12.2548 11.3357C12.7079 10.7306 13.0613 10.0578 13.3057 9.32791C13.5595 8.57093 13.6876 7.77597 13.6876 6.96744C13.6876 6.01783 13.5121 5.09535 13.1657 4.22984ZM7.18762 17.9612C6.45459 17.9612 5.85916 18.6422 5.85916 19.4806C5.85916 20.319 6.45459 21 7.18762 21C7.92065 21 8.51609 20.319 8.51609 19.4806C8.51609 18.6422 7.92065 17.9612 7.18762 17.9612Z" fill="#212121"/>
</svg>
