<svg width="13" height="21" viewBox="0 0 13 21" fill="none" xmlns="http://www.w3.org/2000/svg">
<path d="M12.4781 4.22984C12.146 3.39961 11.6739 2.65349 11.0714 2.01589C9.84726 0.716279 8.22226 0 6.5 0C4.77774 0 3.15274 0.716279 1.92865 2.01318C1.32609 2.65349 0.854015 3.3969 0.521898 4.22984C0.175547 5.09806 0 6.01783 0 6.96744V7.7C0 7.86822 0.118613 8.00388 0.265693 8.00388H1.54672C1.6938 8.00388 1.81241 7.86822 1.81241 7.7V6.96744C1.81241 4.26783 3.91423 2.07287 6.5 2.07287C9.08577 2.07287 11.1876 4.26783 11.1876 6.96744C11.1876 8.07442 10.8436 9.11628 10.1912 9.9845C9.54599 10.8446 8.63504 11.4605 7.62682 11.7209C7.05036 11.8702 6.53084 12.2419 6.16314 12.7736C5.79672 13.3036 5.597 13.9592 5.59617 14.6349V15.4868C5.59617 15.655 5.71478 15.7907 5.86186 15.7907H7.14288C7.28996 15.7907 7.40858 15.655 7.40858 15.4868V14.6349C7.40858 14.2089 7.66715 13.8345 8.02536 13.7422C9.41077 13.3841 10.6681 12.5295 11.5672 11.3357C12.0203 10.7306 12.3737 10.0578 12.6181 9.32791C12.8719 8.57093 13 7.77597 13 6.96744C13 6.01783 12.8245 5.09535 12.4781 4.22984ZM6.5 17.9612C5.76697 17.9612 5.17153 18.6422 5.17153 19.4806C5.17153 20.319 5.76697 21 6.5 21C7.23303 21 7.82847 20.319 7.82847 19.4806C7.82847 18.6422 7.23303 17.9612 6.5 17.9612Z" fill="#212121"/>
</svg>
