<svg width="30" height="41" viewBox="0 0 30 41" fill="none" xmlns="http://www.w3.org/2000/svg">
<path d="M14.3052 0L12.2948 4.59645C13.2869 4.54887 16.3208 4.52794 20.5191 4.82485C24.7174 5.12176 24.8097 8.45062 24.331 10.0779C23.365 13.7894 22.1379 14.1034 20.8846 15.017C19.882 15.7479 17.0553 16.0638 15.7673 16.1304H11.3026L9.71 20.5841L19.6314 20.784C22.5034 21.4977 23.8349 23.1821 23.9394 25.1235C24.0229 26.6766 23.6609 28.4162 23.4694 29.0918C21.8611 34.1165 16.8464 35.2966 14.5402 35.2585L4.61875 35.4013L3 39.9977C6.14178 40.0072 13.0311 39.992 15.454 39.855C17.8769 39.7179 21.1109 38.3133 22.425 37.6281C24.284 36.8744 26.7504 33.4694 27.7513 31.8611C29.3387 29.6 29.4048 25.5898 29.2395 23.8673C28.8844 19.7105 25.2448 17.8339 23.4694 17.4151C26.8114 15.9762 28.5519 13.1613 29.0045 11.9337C29.2917 11.6767 31.0932 6.62346 29.0045 3.31173C27.3335 0.662346 22.9994 0 21.0413 0H14.3052Z" fill="black"/>
<path d="M11 0H5.2212L0.658986 20.7784L4.66359 19.3424L0 41L9.5553 12.1036L5.82949 13.5397L11 0Z" fill="black"/>
</svg>
