<svg width="53" height="72" viewBox="0 0 53 72" fill="none" xmlns="http://www.w3.org/2000/svg">
<path d="M23.9268 0.168457L20.3236 8.42271C22.1018 8.33726 27.5395 8.29967 35.0643 8.83286C42.589 9.36606 42.7544 15.344 41.8964 18.2663C40.165 24.9312 37.9656 25.4952 35.7194 27.1358C33.9224 28.4483 28.856 29.0156 26.5474 29.1353H18.5453L15.6908 37.1332L33.4732 37.492C38.6207 38.7738 41.0073 41.7986 41.1945 45.2849C41.3443 48.0739 40.6954 51.1979 40.3522 52.4112C37.4696 61.4345 28.4816 63.5536 24.348 63.4853L6.56559 63.7416L3.66425 71.9959C9.29535 72.0129 21.6432 71.9856 25.9859 71.7395C30.3285 71.4934 36.125 68.971 38.4804 67.7406C41.8122 66.3871 46.2329 60.2724 48.0267 57.3843C50.8719 53.3238 50.9904 46.1223 50.6941 43.0291C50.0576 35.5643 43.5343 32.1943 40.3522 31.4423C46.3421 28.8584 49.4618 23.8033 50.2729 21.5988C50.7877 21.1373 54.0166 12.0628 50.2729 6.11562C47.278 1.35789 39.5099 0.168457 36.0002 0.168457H23.9268Z" fill="black"/>
<path d="M21.0256 0.0146484H10.3561L1.93288 36.3641L9.32662 33.852L0.716187 71.7395L18.3582 21.1886L11.4792 23.7008L21.0256 0.0146484Z" fill="black"/>
</svg>
