<svg width="41" height="57" viewBox="0 0 41 57" fill="none" xmlns="http://www.w3.org/2000/svg">
<path d="M18.911 0L16.0815 6.43504C17.4779 6.36842 21.7478 6.33911 27.6565 6.75479C33.5652 7.17047 33.6951 11.8309 33.0214 14.1091C31.6618 19.3051 29.9348 19.7448 28.1709 21.0238C26.7599 22.047 22.7815 22.4893 20.9688 22.5826H14.6852L12.4437 28.8178L26.4071 29.0976C30.4492 30.0968 32.3232 32.455 32.4702 35.1729C32.5878 37.3472 32.0783 39.7826 31.8088 40.7286C29.5452 47.7632 22.4876 49.4152 19.2417 49.3619L5.27825 49.5618L3 55.9968C7.42176 56.0101 17.1178 55.9888 20.5278 55.797C23.9378 55.6051 28.4894 53.6386 30.339 52.6794C32.9553 51.6242 36.4265 46.8572 37.8351 44.6056C40.0693 41.44 40.1624 35.8257 39.9296 33.4142C39.4299 27.5947 34.3075 24.9674 31.8088 24.3812C36.5123 22.3667 38.962 18.4258 39.5989 16.7071C40.0031 16.3474 42.5386 9.27285 39.5989 4.63642C37.2472 0.927284 31.1474 0 28.3914 0H18.911Z" fill="white"/>
<path d="M16 0H7.59447L0.958525 28.8871L6.78341 26.8906L0 57L13.8986 16.827L8.47926 18.8234L16 0Z" fill="white"/>
</svg>
